<?xml version="1.0" encoding="utf-8"?>
<!-- Generator: Adobe Illustrator 15.0.0, SVG Export Plug-In . SVG Version: 6.00 Build 0)  -->
<!DOCTYPE svg PUBLIC "-//W3C//DTD SVG 1.1//EN" "http://www.w3.org/Graphics/SVG/1.1/DTD/svg11.dtd">
<svg version="1.1" xmlns="http://www.w3.org/2000/svg" xmlns:xlink="http://www.w3.org/1999/xlink" x="0px" y="0px" width="287px"
	 height="315.667px" viewBox="0 0 287 315.667" enable-background="new 0 0 287 315.667" xml:space="preserve">
<g id="Layer_2" display="none">
	<rect x="-371" y="-95.333" display="inline" width="905" height="621"/>
</g>
<g id="Layer_1">
	<g>
		<polygon fill="#E6E8E8" points="285,72.667 245,72.667 245,34.667 212,34.667 212,0.667 87,0.667 87,34.667 42,34.667 42,73.667 
			3,73.667 3,110.667 42,110.667 44,110.667 87,110.667 87,72.667 135,72.667 135,110.667 135,133.667 181,133.667 181,183.667 
			135,183.667 135,204.667 135,205.667 135,242.667 87,242.667 87,205.667 44,205.667 41,205.667 3,205.667 3,242.667 41,242.667 
			41,280.667 87,280.667 87,315.667 211,315.667 211,280.667 245,280.667 245,242.667 285,242.667 		"/>
	</g>
</g>
</svg>
